<svg width="768" height="768" viewBox="18.16 0.00 731.68 768.00" xmlns="http://www.w3.org/2000/svg">
  <path d="M383.83,470.83 C400.09,470.83 415.65,464.61 436.06,452.50 L702.10,298.55 C733.58,280.22 749.84,262.57 749.84,235.59 C749.84,208.26 733.58,190.62 702.10,172.28 L436.06,18.34 C415.65,6.23 400.09,0.00 383.83,0.00 C367.91,0.00 352.35,6.23 331.59,18.34 L65.90,172.28 C34.08,190.62 18.16,208.26 18.16,235.59 C18.16,262.57 34.08,280.22 65.90,298.55 L331.59,452.50 C352.35,464.61 367.91,470.83 383.83,470.83 Z M383.83,768.00 C400.09,768.00 415.65,761.77 436.06,749.66 L702.10,595.72 C733.58,577.38 749.84,559.74 749.84,532.76 C749.84,505.43 733.58,487.78 702.10,469.45 L606.62,414.44 L462.36,497.82 C431.57,515.46 408.39,523.07 383.83,523.07 C359.61,523.07 336.43,515.46 305.64,497.82 L161.38,414.44 L65.90,469.45 C34.08,487.78 18.16,505.43 18.16,532.76 C18.16,559.74 34.08,577.38 65.90,595.72 L331.59,749.66 C352.35,761.77 367.91,768.00 383.83,768.00 Z " fill="currentColor"/>
</svg>
